# xmcd
#
# Track frame offsets: 
#        150
#        15520
#        29012
#        50885
#        68475
#        88405
#        103449
#        123597
#        143362
#        159126
#        175649
#        184605
#        204696
#        222072
#
# Disc length: 3316 seconds
#
# Revision: 0
# Processed by: cddbd v1.5.2PL0 Copyright (c) Steve Scherf et al.
# Submitted via: ExactAudioCopy v0.99pb5
#
DISCID=c20cf20e
DTITLE=Raconteurs - Consolers of the lonely
DYEAR=2008
DGENRE=Alternative
TTITLE0=Consoler of the lonely
TTITLE1=Salute your solution
TTITLE2=You don't understand me
TTITLE3=Old enough
TTITLE4=The switch and the spur
TTITLE5=Hold up
TTITLE6=Top yourself
TTITLE7=Many shades of black
TTITLE8=Five on the five
TTITLE9=Attetion
TTITLE10=Pull this blanket off
TTITLE11=Rich kid Blues
TTITLE12=These stones will shout
TTITLE13=Carolina Drama
EXTD=
EXTT0=
EXTT1=
EXTT2=
EXTT3=
EXTT4=
EXTT5=
EXTT6=
EXTT7=
EXTT8=
EXTT9=
EXTT10=
EXTT11=
EXTT12=
EXTT13=
PLAYORDER=
